<svg width="30" height="35" viewBox="0 0 30 35" fill="none" xmlns="http://www.w3.org/2000/svg">
<g opacity="0.9" filter="url(#filter0_d_68_121)">
<path d="M14.6328 2.51562L22.2576 14.0757L14.6328 20.2246L7.21405 14.0757L14.6328 2.51562Z" fill="#A8F15A"/>
</g>
<g filter="url(#filter1_d_68_121)">
<path d="M14.3633 0.0107422L21.988 11.5708L14.3633 17.7197L6.94452 11.5708L14.3633 0.0107422Z" fill="#A8F15A"/>
</g>
<path d="M14.3633 0L21.9963 11.5727L14.3633 17.7283V11.5727V0Z" fill="#96D651"/>
<path d="M11.7834 7.4834L12.114 7.4834L12.114 7.81402L11.7834 7.81402L11.7834 7.4834ZM11.7834 8.14464L12.114 8.14464L12.114 8.47526L11.7834 8.47526L11.7834 8.14464ZM11.7834 7.81402L12.114 7.81402L12.114 8.14464L11.7834 8.14464L11.7834 7.81402ZM12.114 7.4834L12.4447 7.4834L12.4447 7.81402L12.114 7.81402L12.114 7.4834ZM11.4528 7.4834L11.7834 7.4834L11.7834 7.81402L11.4528 7.81402L11.4528 7.4834ZM11.4528 7.15278L11.7834 7.15278L11.7834 7.4834L11.4528 7.4834L11.4528 7.15278ZM11.4528 6.82216L11.7834 6.82216L11.7834 7.15278L11.4528 7.15278L11.4528 6.82216ZM11.7834 6.82216L12.114 6.82216L12.114 7.15278L11.7834 7.15278L11.7834 6.82216ZM12.114 6.82216L12.4447 6.82216L12.4447 7.15278L12.114 7.15278L12.114 6.82216ZM12.114 7.15278L12.4447 7.15278L12.4447 7.4834L12.114 7.4834L12.114 7.15278ZM11.7834 7.15278L12.114 7.15278L12.114 7.4834L11.7834 7.4834L11.7834 7.15278ZM11.7834 6.49154L12.114 6.49154L12.114 6.82216L11.7834 6.82216L11.7834 6.49154ZM11.7834 6.16092L12.114 6.16092L12.114 6.49154L11.7834 6.49154L11.7834 6.16092ZM11.1222 7.15278L11.4528 7.15278L11.4528 7.4834L11.1222 7.4834L11.1222 7.15278ZM10.7916 7.15278L11.1222 7.15278L11.1222 7.4834L10.7916 7.4834L10.7916 7.15278ZM12.4447 7.15278L12.7753 7.15278L12.7753 7.4834L12.4447 7.4834L12.4447 7.15278ZM12.7753 7.15278L13.1059 7.15278L13.1059 7.4834L12.7753 7.4834L12.7753 7.15278ZM12.4447 6.49154L12.7753 6.49154L12.7753 6.82216L12.4447 6.82216L12.4447 6.49154ZM11.1222 6.49154L11.4528 6.49154L11.4528 6.82216L11.1222 6.82216L11.1222 6.49154ZM11.1222 7.81402L11.4528 7.81402L11.4528 8.14464L11.1222 8.14464L11.1222 7.81402ZM12.4447 7.81402L12.7753 7.81402L12.7753 8.14464L12.4447 8.14464L12.4447 7.81402Z" fill="black"/>
<defs>
<filter id="filter0_d_68_121" x="0.271811" y="2.51562" width="28.929" height="31.5951" filterUnits="userSpaceOnUse" color-interpolation-filters="sRGB">
<feFlood flood-opacity="0" result="BackgroundImageFix"/>
<feColorMatrix in="SourceAlpha" type="matrix" values="0 0 0 0 0 0 0 0 0 0 0 0 0 0 0 0 0 0 127 0" result="hardAlpha"/>
<feOffset dy="6.94303"/>
<feGaussianBlur stdDeviation="3.47152"/>
<feComposite in2="hardAlpha" operator="out"/>
<feColorMatrix type="matrix" values="0 0 0 0 0 0 0 0 0 0 0 0 0 0 0 0 0 0 0.25 0"/>
<feBlend mode="normal" in2="BackgroundImageFix" result="effect1_dropShadow_68_121"/>
<feBlend mode="normal" in="SourceGraphic" in2="effect1_dropShadow_68_121" result="shape"/>
</filter>
<filter id="filter1_d_68_121" x="0.00227928" y="0.0107422" width="28.929" height="31.5951" filterUnits="userSpaceOnUse" color-interpolation-filters="sRGB">
<feFlood flood-opacity="0" result="BackgroundImageFix"/>
<feColorMatrix in="SourceAlpha" type="matrix" values="0 0 0 0 0 0 0 0 0 0 0 0 0 0 0 0 0 0 127 0" result="hardAlpha"/>
<feOffset dy="6.94303"/>
<feGaussianBlur stdDeviation="3.47152"/>
<feComposite in2="hardAlpha" operator="out"/>
<feColorMatrix type="matrix" values="0 0 0 0 0 0 0 0 0 0 0 0 0 0 0 0 0 0 0.25 0"/>
<feBlend mode="normal" in2="BackgroundImageFix" result="effect1_dropShadow_68_121"/>
<feBlend mode="normal" in="SourceGraphic" in2="effect1_dropShadow_68_121" result="shape"/>
</filter>
</defs>
</svg>
